<?xml version="1.0" standalone="no"?><svg xmlns="http://www.w3.org/2000/svg" viewBox="0 0 1440 320"><path fill="#0099ff" fill-opacity="1" d="M0,96L34.3,117.3C68.6,139,137,181,206,197.3C274.3,213,343,203,411,186.7C480,171,549,149,617,138.7C685.7,128,754,128,823,144C891.4,160,960,192,1029,181.3C1097.1,171,1166,117,1234,90.7C1302.9,64,1371,64,1406,64L1440,64L1440,320L1405.7,320C1371.4,320,1303,320,1234,320C1165.7,320,1097,320,1029,320C960,320,891,320,823,320C754.3,320,686,320,617,320C548.6,320,480,320,411,320C342.9,320,274,320,206,320C137.1,320,69,320,34,320L0,320Z"></path></svg>